<?xml version="1.0" encoding="utf-8"?>
<svg id="master-artboard" viewBox="0 0 2190 1490" version="1.1" xmlns="http://www.w3.org/2000/svg" x="0px" y="0px" style="enable-background:new 0 0 550 385;" width="2190px" height="1490px"><rect id="ee-background" x="0" y="0" width="2190" height="1490" style="fill: white; fill-opacity: 0; pointer-events: none;"/>

<path d="M 0 0 H 550 V 385 H 0 V 0 Z" class="st0" style="fill: rgb(255, 255, 255);" transform="matrix(4.038002967834473, 0, 0, 4.038002967834473, -18.421630859375, -26.73614501953125)"/>
<g transform="matrix(4.038002967834473, 0, 0, 4.038002967834473, -18.421630859375, -26.73614501953125)">
		<g id="child-reading-book">
			<path d="M 370 202.5 H 520 V 352.5 H 370 V 202.5 Z" id="label_8_" class="st1" style="fill: rgb(252, 110, 81);"/>
			<g id="icon_8_">
				<g>
					<path class="st2" d="M461.9,255.1c0.7,2.1,1.4,4.1,1.4,6.4l-17.9,11.9l-18.7-11c-0.1-7.1,4.6-14.2,11.3-16.8&#10;&#9;&#9;&#9;&#9;&#9;&#9;c6.5-2.5,14.3-1.4,19.4,3.4C459.4,250.6,460.8,252.9,461.9,255.1z" style="fill: rgb(240, 208, 180);"/>
					<path class="st3" d="M445.1,244c10.8,0,20.4,8,21.1,16.8l-2.2,2.2c-4.5-6.8-12.1-9.5-18.9-9.6c-6.8,0-14.4,2.7-19,9.4l-2.2-2.2&#10;&#9;&#9;&#9;&#9;&#9;&#9;c0.3-4.1,3.3-8.8,6.6-11.6c-1.7-1.9-2.7-5.3-1.2-9.6c1.1,3.7,3.2,5.5,7.2,6.1c-3.2-2.6-2.5-7.4-0.4-10.6&#10;&#9;&#9;&#9;&#9;&#9;&#9;C437.7,239.6,440.7,242.6,445.1,244L445.1,244z" style="fill-rule: evenodd; clip-rule: evenodd; fill: rgb(61, 61, 61);"/>
				</g>
				<g>
					<path class="st4" d="M417.1,258.5l25.3,9.2v0c0,0,0,0,0,0l0,0l0,0c0,0,0,0,0,0c0.3,0.1,0.5,0.2,0.8,0.4&#10;&#9;&#9;&#9;&#9;&#9;&#9;c1.3,0.8,2.2,2.3,2.2,3.7v6.8l-28.3-10.3V262l-3.3-1.2L417.1,258.5z" style="fill: rgb(235, 237, 240);"/>
					<path class="st5" d="M473.8,258.5l-25.3,9.2v0c0,0,0,0,0,0l0,0l0,0c0,0,0,0,0,0c-0.3,0.1-0.5,0.2-0.8,0.4&#10;&#9;&#9;&#9;&#9;&#9;&#9;c-1.3,0.8-2.2,2.3-2.2,3.7v6.8l28.3-10.3V262l3.3-1.2L473.8,258.5z" style="fill: rgb(245, 246, 247);"/>
					<path class="st6" d="M445.5,271.8c-1.6,0-3.1-0.3-4.6-1c0,1.4,0,2.8,0,4.2c1.5,0.6,3,1,4.6,1c1.6,0,3.1-0.3,4.6-1&#10;&#9;&#9;&#9;&#9;&#9;&#9;c0-1.4,0-2.8,0-4.2C448.6,271.4,447,271.8,445.5,271.8z" style="fill: rgb(204, 209, 217);"/>
					<path class="st6" d="M478,260.4l-28.2,10.2v1c-3,1.2-5.7,1.2-8.7,0v-1l-25.2-9.1l-3-1.1l-1,0.6l1,0.4v44.3l27.9,10.2&#10;&#9;&#9;&#9;&#9;&#9;&#9;c0,0.3,0,0.6,0,1c3,1.2,6.4,1.2,9.4,0c0-0.3,0-0.6,0-1l27.9-10.2v-44.3l1-0.4L478,260.4z" style="fill: rgb(204, 209, 217);"/>
					<path d="M 465.20001220703125 266 L 449.8999938964844 271 L 449.8999938964844 317.6000061035156 L 465.20001220703125 312.6000061035156 L 479 307.6000061035156 L 479 261 Z" class="st7" style="fill: rgb(93, 156, 236);"/>
					<path d="M 425.70001220703125 266 L 411.8999938964844 261 L 411.8999938964844 307.6000061035156 L 425.70001220703125 312.6000061035156 L 441 317.6000061035156 L 441 271 Z" class="st7" style="fill: rgb(93, 156, 236);"/>
					<g>
						<path class="st8" d="M440.6,272.4c0,15.5,0,31.1,0,46.6c1.5,0.6,3.2,1,4.8,1v-46.6C443.8,273.4,442.2,273.1,440.6,272.4z" style="fill: rgb(101, 109, 120);"/>
						<path class="st9" d="M445.5,273.4V320c1.6,0,3.3-0.3,4.8-1c0-15.5,0-31.1,0-46.6C448.7,273.1,447.1,273.4,445.5,273.4z" style="fill: rgb(67, 74, 84);"/>
					</g>
					<g>
						<path class="st10" d="M450.3,276.7c-1.5,0.6-3.2,1-4.8,1v4.2c1.6,0,3.3-0.3,4.8-1C450.3,279.6,450.3,278.1,450.3,276.7z" style="fill: rgb(239, 177, 24);"/>
						<path class="st11" d="M440.6,276.7c0,1.4,0,2.8,0,4.2c1.5,0.6,3.2,1,4.8,1v-4.2C443.8,277.7,442.2,277.4,440.6,276.7z" style="fill: rgb(255, 200, 44);"/>
						<path class="st10" d="M450.3,314c0-1.4,0-0.7,0-2.1c-1.5,0.6-3.2,1-4.8,1v2.1C447.1,315,448.7,314.7,450.3,314z" style="fill: rgb(239, 177, 24);"/>
						<path class="st11" d="M440.6,314c1.5,0.6,3.2,1,4.8,1v-2.1c-1.6,0-3.3-0.3-4.8-1C440.6,313.3,440.6,312.6,440.6,314z" style="fill: rgb(255, 200, 44);"/>
						<path class="st10" d="M450.3,310.2c0-1.4,0-0.7,0-2.1c-1.5,0.6-3.2,1-4.8,1v2.1C447.1,311.1,448.7,310.8,450.3,310.2z" style="fill: rgb(239, 177, 24);"/>
						<path class="st11" d="M440.6,310.2c1.5,0.6,3.2,1,4.8,1V309c-1.6,0-3.3-0.3-4.8-1C440.6,309.5,440.6,308.7,440.6,310.2z" style="fill: rgb(255, 200, 44);"/>
					</g>
					<path class="st9" d="M440.6,272.4l0.5-0.9c0,0,2.3,0.9,4.4,0.9c2.1,0,4.4-0.9,4.4-0.9l0.5,0.9c0,0-1.9,1-4.8,1&#10;&#9;&#9;&#9;&#9;&#9;&#9;C442.6,273.4,440.6,272.4,440.6,272.4z" style="fill: rgb(67, 74, 84);"/>
				</g>
				<path class="st12" d="M418.1,286.5c0,4.9-2.4,9-5.4,9c-3,0-8.1-4-8.1-9c0-4.9,5.1-9,8.1-9C415.7,277.5,418.1,281.5,418.1,286.5z&#10;&#9;&#9;&#9;&#9;&#9;" style="fill-rule: evenodd; clip-rule: evenodd; fill: rgb(240, 208, 180);"/>
				<path class="st12" d="M471.9,286.5c0,4.9,2.4,9,5.4,9c3,0,8.1-4,8.1-9c0-4.9-5.1-9-8.1-9C474.3,277.5,471.9,281.5,471.9,286.5z" style="fill-rule: evenodd; clip-rule: evenodd; fill: rgb(240, 208, 180);"/>
			</g>
		</g>
		<g id="pdf-book">
			<path d="M 200 202.5 H 350 V 352.5 H 200 V 202.5 Z" id="label_5_" class="st6" style="fill: rgb(204, 209, 217);"/>
			<g id="icon_5_">
				<g id="book">
					<path d="M 248.10000610351562 248.39999389648438 L 251.3000030517578 244.1999969482422 L 303.29998779296875 244.1999969482422 L 304.20001220703125 247.6999969482422 L 304.20001220703125 302.3999938964844 L 302.29998779296875 305 L 298.70001220703125 308.20001220703125 Z" class="st0" style="fill: rgb(255, 255, 255);"/>
					<path class="st9" d="M299.8,241.6h-48.6l-6.3,6.8v65h48.6c2.9,0,5.2-2.3,5.2-5.2v-54.6c0-2.9-2.3-5.2-5.2-5.2h-45.4l3.1-4.2&#10;&#9;&#9;&#9;&#9;&#9;&#9;h48.4c1.7,0,3.1,1.4,3.1,3.1v55.9c0,0.8-0.3,1.7-1,2.2l-1.2,1.1c2.5-0.4,4.4-2.5,4.4-5.1v-54.6&#10;&#9;&#9;&#9;&#9;&#9;&#9;C305,243.9,302.7,241.6,299.8,241.6z" style="fill: rgb(67, 74, 84);"/>
					<path class="st13" d="M293.6,248.4h-45.4H245v65h48.6c2.9,0,5.2-2.3,5.2-5.2v-54.6C298.7,250.7,296.4,248.4,293.6,248.4z" style="fill: rgb(76, 83, 93);"/>
					<path d="M 245.399994 247.899994 H 247.799994 V 313.399994 H 245.399994 V 247.899994 Z" class="st14" style="fill: rgb(116, 124, 133);"/>
				</g>
				<g id="pdf">
					<path class="st1" d="M293.4,304.5c0,1.7-1.4,3.1-3.1,3.1h-17.6c-1.7,0-3.1-1.4-3.1-3.1v-8.2c0-1.7,1.4-3.1,3.1-3.1h17.6&#10;&#9;&#9;&#9;&#9;&#9;&#9;c1.7,0,3.1,1.4,3.1,3.1V304.5z" style="fill: rgb(252, 110, 81);"/>
					<g>
						<path class="st0" d="M274.6,296.8c0.5,0,0.9,0.1,1.3,0.2c0.4,0.1,0.7,0.3,0.9,0.5c0.2,0.2,0.4,0.5,0.5,0.7&#10;&#9;&#9;&#9;&#9;&#9;&#9;&#9;c0.1,0.3,0.2,0.6,0.2,0.9c0,0.4-0.1,0.7-0.2,1c-0.1,0.3-0.3,0.6-0.5,0.8c-0.2,0.2-0.5,0.4-0.9,0.5c-0.4,0.1-0.8,0.2-1.3,0.2&#10;&#9;&#9;&#9;&#9;&#9;&#9;&#9;h-1v2.5h-1.5v-7.3H274.6z M274.6,300.4c0.5,0,0.8-0.1,1-0.3c0.2-0.2,0.3-0.5,0.3-0.9c0-0.2,0-0.3-0.1-0.5&#10;&#9;&#9;&#9;&#9;&#9;&#9;&#9;c-0.1-0.1-0.1-0.3-0.3-0.4c-0.1-0.1-0.3-0.2-0.4-0.2c-0.2-0.1-0.4-0.1-0.6-0.1h-1v2.5H274.6z" style="fill: rgb(255, 255, 255);"/>
						<path class="st0" d="M285,300.4c0,0.5-0.1,1-0.3,1.5c-0.2,0.4-0.4,0.8-0.8,1.2c-0.3,0.3-0.7,0.6-1.2,0.8&#10;&#9;&#9;&#9;&#9;&#9;&#9;&#9;c-0.5,0.2-1,0.3-1.5,0.3h-2.8v-7.3h2.8c0.6,0,1.1,0.1,1.5,0.3c0.5,0.2,0.9,0.4,1.2,0.8c0.3,0.3,0.6,0.7,0.8,1.2&#10;&#9;&#9;&#9;&#9;&#9;&#9;&#9;C284.9,299.4,285,299.9,285,300.4z M283.4,300.4c0-0.4,0-0.7-0.2-1c-0.1-0.3-0.2-0.6-0.4-0.8c-0.2-0.2-0.4-0.4-0.7-0.5&#10;&#9;&#9;&#9;&#9;&#9;&#9;&#9;c-0.3-0.1-0.6-0.2-0.9-0.2h-1.3v4.9h1.3c0.3,0,0.6-0.1,0.9-0.2c0.3-0.1,0.5-0.3,0.7-0.5c0.2-0.2,0.3-0.5,0.4-0.8&#10;&#9;&#9;&#9;&#9;&#9;&#9;&#9;C283.4,301.1,283.4,300.8,283.4,300.4z" style="fill: rgb(255, 255, 255);"/>
						<path class="st0" d="M287.6,297.9v2h2.6v1.2h-2.6v2.9h-1.5v-7.3h4.7v1.2H287.6z" style="fill: rgb(255, 255, 255);"/>
					</g>
				</g>
			</g>
		</g>
		<g id="black-book-red-ribbon">
			<path d="M 30 202.5 H 180 V 352.5 H 30 V 202.5 Z" id="label_2_" class="st7" style="fill: rgb(93, 156, 236);"/>
			<g id="icon_2_">
				<path class="st15" d="M76.7,243.6v64.3h4.6v-70.2C78.6,238.4,76.7,240.7,76.7,243.6z" style="fill: rgb(65, 69, 76);"/>
				<path class="st8" d="M76.7,255.2v7.3c0-2.8,1.9-5.2,4.6-5.9v-7.3C78.6,249.9,76.7,252.3,76.7,255.2z" style="fill: rgb(101, 109, 120);"/>
				<path class="st8" d="M76.7,296.3v3.1c0-2.8,1.9-5.2,4.6-5.9v-3.1C78.6,291.1,76.7,293.5,76.7,296.3z" style="fill: rgb(101, 109, 120);"/>
				<path class="st8" d="M76.7,290.1v3.1c0-2.8,1.9-5.2,4.6-5.9v-3.1C78.6,284.9,76.7,287.2,76.7,290.1z" style="fill: rgb(101, 109, 120);"/>
				<path class="st16" d="M82.8,237.4c-0.6,0-1.1,0.1-1.6,0.2v70.2h1.6v-58.1L82.8,237.4C82.8,237.4,82.8,237.4,82.8,237.4z" style="fill: rgb(50, 56, 63);"/>
				<path class="st17" d="M82.8,237.4L82.8,237.4C82.8,237.4,82.8,237.4,82.8,237.4L82.8,237.4z" style="fill: rgb(209, 52, 48);"/>
				<path class="st9" d="M82.8,301.6c-3.4,0-6.2,2.8-6.2,6.2s2.8,6.2,6.2,6.2c0,0,0,0,0,0L82.8,301.6&#10;&#9;&#9;&#9;&#9;&#9;C82.8,301.6,82.8,301.6,82.8,301.6z" style="fill: rgb(67, 74, 84);"/>
				<path class="st9" d="M82.8,302.7h50.5v-1.1H82.9v0c0,0,0,0,0,0c-3.4,0-6.2,2.8-6.2,6.2s2.8,6.2,6.2,6.2c0,0,0,0,0,0v0h0h50.5&#10;&#9;&#9;&#9;&#9;&#9;v-1.1l-50.5,0l0,0c-2.8,0-4-2.3-4-5C78.8,305,80,302.8,82.8,302.7z" style="fill: rgb(67, 74, 84);"/>
				<path d="M 82.900002 237.399994 H 133.400002 V 301.599991 H 82.900002 V 237.399994 Z" class="st18" style="fill: rgb(86, 92, 101);"/>
				<path class="st0" d="M84.4,302.7c-2.7,0-5,2.3-5,5c0,2.8,2.2,5,4.9,5h0h0l48.2,0v-10.1H84.4z" style="fill: rgb(255, 255, 255);"/>
				<path class="st6" d="M129.7,302.5h-20.5c-9,0-17.9,0-26.9,0c-6.2,0-6.2,10.6,0,10.6c11.2,0,22.5,0,33.7,0L129.7,302.5z" style="fill: rgb(204, 209, 217);"/>
				<path d="M 91.0999984741211 307 L 87.9000015258789 307 L 87.9000015258789 317.6000061035156 L 91.0999984741211 315.79998779296875 L 94.30000305175781 317.6000061035156 L 94.30000305175781 307 Z" class="st1" style="fill: rgb(252, 110, 81);"/>
			</g>
		</g>
		<g id="tablet-reader-hand">
			<path d="M 370 32.5 H 520 V 182.5 H 370 V 32.5 Z" id="label_15_" class="st7" style="fill: rgb(93, 156, 236);"/>
			<g id="icon_14_">
				<g id="tablet">
					<path class="st9" d="M403.4,67.7v53.7c0,2.9,2.3,5.2,5.2,5.2h72.7c2.9,0,5.2-2.4,5.2-5.2V67.7c0-2.9-2.4-5.2-5.2-5.2h-72.7&#10;&#9;&#9;&#9;&#9;&#9;&#9;C405.8,62.5,403.4,64.9,403.4,67.7z" style="fill: rgb(67, 74, 84);"/>
					<path d="M 411.700012 67.800003 H 477.100014 V 121.200005 H 411.700012 V 67.800003 Z" class="st0" style="fill: rgb(255, 255, 255);"/>
					<path class="st8" d="M405.1,94.7c0-0.8,0.6-1.4,1.4-1.4c0.8,0,1.4,0.6,1.4,1.4c0,0.8-0.6,1.4-1.4,1.4&#10;&#9;&#9;&#9;&#9;&#9;&#9;C405.8,96.1,405.1,95.5,405.1,94.7z" style="fill: rgb(101, 109, 120);"/>
					<path class="st8" d="M482,90.5c0.4,0,0.8,0.3,0.8,0.8v6.1c0,0.4-0.3,0.8-0.8,0.8h-0.4c-0.4,0-0.8-0.3-0.8-0.8v-6.1&#10;&#9;&#9;&#9;&#9;&#9;&#9;c0-0.4,0.3-0.8,0.8-0.8H482z" style="fill: rgb(101, 109, 120);"/>
				</g>
				<g id="content_1_">
					<path d="M 418.299988 76.900002 H 448.699987 V 84.300002 H 418.299988 V 76.900002 Z" class="st1" style="fill: rgb(252, 110, 81);"/>
					<path d="M 455.799988 76.900002 H 470.899988 V 84.300002 H 455.799988 V 76.900002 Z" class="st19" style="fill: rgb(255, 206, 84);"/>
					<g>
						<path d="M 418.299988 91.800003 H 470.799988 V 93.100003 H 418.299988 V 91.800003 Z" class="st20" style="fill: rgb(187, 193, 201);"/>
						<path d="M 418.299988 96.699997 H 470.799988 V 97.999997 H 418.299988 V 96.699997 Z" class="st20" style="fill: rgb(187, 193, 201);"/>
						<path d="M 418.299988 101.599998 H 470.799988 V 102.899998 H 418.299988 V 101.599998 Z" class="st20" style="fill: rgb(187, 193, 201);"/>
						<path d="M 418.299988 106.5 H 470.799988 V 107.8 H 418.299988 V 106.5 Z" class="st20" style="fill: rgb(187, 193, 201);"/>
						<path d="M 418.299988 111.5 H 470.799988 V 112.8 H 418.299988 V 111.5 Z" class="st20" style="fill: rgb(187, 193, 201);"/>
					</g>
				</g>
				<g id="hand_3_">
					<path class="st12" d="M455.4,148.9c0-3,0.3-3.5-0.3-4.3c-1.4-2-2-3.2-2.8-5.2c-2.3-6.1-4-11.9-6.2-17.9&#10;&#9;&#9;&#9;&#9;&#9;&#9;c-0.7-1.3-0.1-2.9,1.2-3.6l0,0c1.3-0.7,2.9-0.1,3.6,1.2c0.7,1.9,2.6,7.7,2.7,7.7v-22.4c0-1.5,1.2-2.7,2.7-2.7l0,0&#10;&#9;&#9;&#9;&#9;&#9;&#9;c1.5,0,2.7,1.2,2.7,2.7v21c0.1,0,0.2,0.1,0.3,0.1v-8c0-1.5,1.2-2.7,2.7-2.7h0c1.5,0,2.7,1.2,2.7,2.7v10c0.1,0,0.1,0,0.2,0.1&#10;&#9;&#9;&#9;&#9;&#9;&#9;v-7.8c0-1.5,1.2-2.7,2.7-2.7l0,0c1.5,0,2.7,1.2,2.7,2.7v9c0.1,0,0.1,0.1,0.2,0.1v-6.4c0-1.5,1.2-2.7,2.6-2.7l0,0&#10;&#9;&#9;&#9;&#9;&#9;&#9;c1.5,0,2.7,1.2,2.7,2.7c0,5.7,0.4,11.5-0.4,17c-0.8,3.3-1.9,4.2-2.4,6.3l-0.1,3.3H455.4z" style="fill-rule: evenodd; clip-rule: evenodd; fill: rgb(240, 208, 180);"/>
					<path d="M 458.200006 104.699997 A 2.1 2.1 0 0 1 456.100006 106.799997 A 2.1 2.1 0 0 1 454.000006 104.699997 A 2.1 2.1 0 0 1 456.100006 102.599997 A 2.1 2.1 0 0 1 458.200006 104.699997 Z" class="st21" style="fill-rule: evenodd; clip-rule: evenodd; fill: rgb(246, 227, 210);"/>
					<path class="st21" d="M445.9,119.4c0.1,0,0.2,0,0.4,0c1.2,0,2.1,1,2.1,2.1c0,1-0.7,1.8-1.6,2.1l-0.8-2.1&#10;&#9;&#9;&#9;&#9;&#9;&#9;C445.7,120.7,445.7,120,445.9,119.4z" style="fill-rule: evenodd; clip-rule: evenodd; fill: rgb(246, 227, 210);"/>
					<path d="M 454.100006 146 H 474.000006 V 152.5 H 454.100006 V 146 Z" class="st22" style="fill-rule: evenodd; clip-rule: evenodd; fill: rgb(67, 74, 84);"/>
				</g>
			</g>
		</g>
		<g id="open-book-turning-page">
			<path d="M 200 32.5 H 350 V 182.5 H 200 V 32.5 Z" id="label_12_" class="st11" style="fill: rgb(255, 200, 44);"/>
			<g id="icon_11_">
				<g id="book_4_">
					<g>
						<path class="st9" d="M280,145.5c-0.2,0.6-0.6,1.2-1.1,1.8c-1,1-2.4,1.6-4.3,1.6h-0.1c-1.9,0-3.4-0.6-4.4-1.7&#10;&#9;&#9;&#9;&#9;&#9;&#9;&#9;c-0.5-0.5-0.8-1.1-1-1.7h-38.6v1h37.8c0.8,1.8,2.6,3.5,6.2,3.6c3.6,0,5.3-1.7,6.2-3.6h38.7v-1H280z" style="fill: rgb(67, 74, 84);"/>
						<path class="st8" d="M278.7,80.2v1v3.7h-7.4v-3.7v-1h-40.8v65.3h38.6c0.2,0.6,0.6,1.2,1,1.7c1,1.1,2.5,1.7,4.4,1.7h0.1&#10;&#9;&#9;&#9;&#9;&#9;&#9;&#9;c1.8,0,3.3-0.5,4.3-1.6c0.5-0.5,0.9-1.2,1.1-1.8h39.5V80.2H278.7z" style="fill: rgb(101, 109, 120);"/>
					</g>
					<g>
						<path class="st23" d="M268.3,136.7h-35.8v6.6h29.1H275l0,0C275,139.7,272,136.7,268.3,136.7z" style="fill: rgb(214, 218, 225);"/>
						<path class="st24" d="M275,143.4c0-2.7-3-4.8-6.6-4.8h-35.8v0.5h35.8C272,139,275,141,275,143.4z" style="fill: rgb(230, 233, 237);"/>
						<path class="st24" d="M275,143.4c0-1.8-3-3.3-6.6-3.3h-35.8v0.5h35.8C272,140.5,275,141.8,275,143.4z" style="fill: rgb(230, 233, 237);"/>
						<path class="st24" d="M275,143.4c0-1.1-3-2-6.6-2h-35.8v0.4h35.8C272,141.8,275,142.5,275,143.4z" style="fill: rgb(230, 233, 237);"/>
					</g>
					<path class="st0" d="M268.3,78.9h-35.8v57.8h35.8c3.7,0,6.6,3,6.6,6.6V85.6l0,0C275,81.9,272,78.9,268.3,78.9z" style="fill: rgb(255, 255, 255);"/>
					<g>
						<path class="st25" d="M270.9,129.3V86.1H270L232.6,120v16.8h35.8c2.7,0,5.1,1.6,6.1,4l-0.5-11.5H270.9z" style="fill: rgb(224, 227, 232);"/>
					</g>
					<path class="st26" d="M281.6,78.9h35.8v57.8h-35.8c-3.7,0-6.6,3-6.6,6.6V85.6l0,0C275,81.9,277.9,78.9,281.6,78.9z" style="fill: rgb(245, 247, 250);"/>
					<g>
						<path class="st23" d="M281.6,136.7h35.8v6.6h-29.1H275l0,0C275,139.7,277.9,136.7,281.6,136.7z" style="fill: rgb(214, 218, 225);"/>
						<path class="st24" d="M275,143.4c0-2.7,3-4.8,6.6-4.8h35.8v0.5h-35.8C277.9,139,275,141,275,143.4z" style="fill: rgb(230, 233, 237);"/>
						<path class="st24" d="M275,143.4c0-1.8,3-3.3,6.6-3.3h35.8v0.5h-35.8C277.9,140.5,275,141.8,275,143.4z" style="fill: rgb(230, 233, 237);"/>
						<path class="st24" d="M275,143.4c0-1.1,3-2,6.6-2h35.8v0.4h-35.8C277.9,141.8,275,142.5,275,143.4z" style="fill: rgb(230, 233, 237);"/>
					</g>
					<g>
						<path d="M 280.799988 128.199997 H 312.299988 V 128.599997 H 280.799988 V 128.199997 Z" class="st27" style="fill-rule: evenodd; clip-rule: evenodd; fill: rgb(213, 216, 222);"/>
						<path d="M 295.799988 129.800003 H 312.299988 V 130.200003 H 295.799988 V 129.800003 Z" class="st27" style="fill-rule: evenodd; clip-rule: evenodd; fill: rgb(213, 216, 222);"/>
						<path d="M 280.799988 129.800003 H 294.399988 V 130.200003 H 280.799988 V 129.800003 Z" class="st27" style="fill-rule: evenodd; clip-rule: evenodd; fill: rgb(213, 216, 222);"/>
						<path d="M 304.600006 131.300003 H 312.300006 V 131.700003 H 304.600006 V 131.300003 Z" class="st27" style="fill-rule: evenodd; clip-rule: evenodd; fill: rgb(213, 216, 222);"/>
						<path d="M 280.799988 131.300003 H 303.199987 V 131.700003 H 280.799988 V 131.300003 Z" class="st27" style="fill-rule: evenodd; clip-rule: evenodd; fill: rgb(213, 216, 222);"/>
						<path d="M 280.799988 120.5 H 312.299988 V 120.9 H 280.799988 V 120.5 Z" class="st27" style="fill-rule: evenodd; clip-rule: evenodd; fill: rgb(213, 216, 222);"/>
						<path d="M 280.799988 122 H 297.299988 V 122.4 H 280.799988 V 122 Z" class="st27" style="fill-rule: evenodd; clip-rule: evenodd; fill: rgb(213, 216, 222);"/>
						<path d="M 298.700012 122 H 312.300013 V 122.4 H 298.700012 V 122 Z" class="st27" style="fill-rule: evenodd; clip-rule: evenodd; fill: rgb(213, 216, 222);"/>
						<path d="M 280.799988 123.599998 H 288.499988 V 123.999998 H 280.799988 V 123.599998 Z" class="st27" style="fill-rule: evenodd; clip-rule: evenodd; fill: rgb(213, 216, 222);"/>
						<path d="M 289.899994 123.599998 H 312.299994 V 123.999998 H 289.899994 V 123.599998 Z" class="st27" style="fill-rule: evenodd; clip-rule: evenodd; fill: rgb(213, 216, 222);"/>
						<path d="M 280.799988 125.099998 H 312.299988 V 125.499998 H 280.799988 V 125.099998 Z" class="st27" style="fill-rule: evenodd; clip-rule: evenodd; fill: rgb(213, 216, 222);"/>
						<path d="M 280.799988 126.699997 H 301.699987 V 127.099997 H 280.799988 V 126.699997 Z" class="st27" style="fill-rule: evenodd; clip-rule: evenodd; fill: rgb(213, 216, 222);"/>
						<path d="M 302.899994 126.699997 H 312.299994 V 127.099997 H 302.899994 V 126.699997 Z" class="st27" style="fill-rule: evenodd; clip-rule: evenodd; fill: rgb(213, 216, 222);"/>
						<path d="M 280.799988 115.800003 H 312.299988 V 116.200003 H 280.799988 V 115.800003 Z" class="st27" style="fill-rule: evenodd; clip-rule: evenodd; fill: rgb(213, 216, 222);"/>
						<path d="M 295.799988 117.400002 H 312.299988 V 117.800002 H 295.799988 V 117.400002 Z" class="st27" style="fill-rule: evenodd; clip-rule: evenodd; fill: rgb(213, 216, 222);"/>
						<path d="M 280.799988 117.400002 H 294.399988 V 117.800002 H 280.799988 V 117.400002 Z" class="st27" style="fill-rule: evenodd; clip-rule: evenodd; fill: rgb(213, 216, 222);"/>
						<path d="M 304.600006 118.900002 H 312.300006 V 119.300002 H 304.600006 V 118.900002 Z" class="st27" style="fill-rule: evenodd; clip-rule: evenodd; fill: rgb(213, 216, 222);"/>
						<path d="M 280.799988 118.900002 H 303.199987 V 119.300002 H 280.799988 V 118.900002 Z" class="st27" style="fill-rule: evenodd; clip-rule: evenodd; fill: rgb(213, 216, 222);"/>
						<path d="M 280.799988 108.099998 H 312.299988 V 108.499998 H 280.799988 V 108.099998 Z" class="st27" style="fill-rule: evenodd; clip-rule: evenodd; fill: rgb(213, 216, 222);"/>
						<path d="M 280.799988 109.599998 H 297.299988 V 109.999998 H 280.799988 V 109.599998 Z" class="st27" style="fill-rule: evenodd; clip-rule: evenodd; fill: rgb(213, 216, 222);"/>
						<path d="M 298.700012 109.599998 H 312.300013 V 109.999998 H 298.700012 V 109.599998 Z" class="st27" style="fill-rule: evenodd; clip-rule: evenodd; fill: rgb(213, 216, 222);"/>
						<path d="M 280.799988 111.199997 H 288.499988 V 111.599997 H 280.799988 V 111.199997 Z" class="st27" style="fill-rule: evenodd; clip-rule: evenodd; fill: rgb(213, 216, 222);"/>
						<path d="M 289.899994 111.199997 H 312.299994 V 111.599997 H 289.899994 V 111.199997 Z" class="st27" style="fill-rule: evenodd; clip-rule: evenodd; fill: rgb(213, 216, 222);"/>
						<path d="M 280.799988 112.699997 H 312.299988 V 113.099997 H 280.799988 V 112.699997 Z" class="st27" style="fill-rule: evenodd; clip-rule: evenodd; fill: rgb(213, 216, 222);"/>
						<path d="M 280.799988 114.300003 H 301.699987 V 114.700003 H 280.799988 V 114.300003 Z" class="st27" style="fill-rule: evenodd; clip-rule: evenodd; fill: rgb(213, 216, 222);"/>
						<path d="M 302.899994 114.300003 H 312.299994 V 114.700003 H 302.899994 V 114.300003 Z" class="st27" style="fill-rule: evenodd; clip-rule: evenodd; fill: rgb(213, 216, 222);"/>
						<path d="M 280.799988 103.400002 H 312.299988 V 103.800002 H 280.799988 V 103.400002 Z" class="st27" style="fill-rule: evenodd; clip-rule: evenodd; fill: rgb(213, 216, 222);"/>
						<path d="M 295.799988 105 H 312.299988 V 105.4 H 295.799988 V 105 Z" class="st27" style="fill-rule: evenodd; clip-rule: evenodd; fill: rgb(213, 216, 222);"/>
						<path d="M 280.799988 105 H 294.399988 V 105.4 H 280.799988 V 105 Z" class="st27" style="fill-rule: evenodd; clip-rule: evenodd; fill: rgb(213, 216, 222);"/>
						<path d="M 304.600006 106.5 H 312.300006 V 106.9 H 304.600006 V 106.5 Z" class="st27" style="fill-rule: evenodd; clip-rule: evenodd; fill: rgb(213, 216, 222);"/>
						<path d="M 280.799988 106.5 H 303.199987 V 106.9 H 280.799988 V 106.5 Z" class="st27" style="fill-rule: evenodd; clip-rule: evenodd; fill: rgb(213, 216, 222);"/>
						<path d="M 280.799988 95.699997 H 312.299988 V 96.099997 H 280.799988 V 95.699997 Z" class="st27" style="fill-rule: evenodd; clip-rule: evenodd; fill: rgb(213, 216, 222);"/>
						<path d="M 280.799988 97.199997 H 297.299988 V 97.599997 H 280.799988 V 97.199997 Z" class="st27" style="fill-rule: evenodd; clip-rule: evenodd; fill: rgb(213, 216, 222);"/>
						<path d="M 298.700012 97.199997 H 312.300013 V 97.599997 H 298.700012 V 97.199997 Z" class="st27" style="fill-rule: evenodd; clip-rule: evenodd; fill: rgb(213, 216, 222);"/>
						<path d="M 280.799988 98.800003 H 288.499988 V 99.200003 H 280.799988 V 98.800003 Z" class="st27" style="fill-rule: evenodd; clip-rule: evenodd; fill: rgb(213, 216, 222);"/>
						<path d="M 289.899994 98.800003 H 312.299994 V 99.200003 H 289.899994 V 98.800003 Z" class="st27" style="fill-rule: evenodd; clip-rule: evenodd; fill: rgb(213, 216, 222);"/>
						<path d="M 280.799988 100.300003 H 312.299988 V 100.700003 H 280.799988 V 100.300003 Z" class="st27" style="fill-rule: evenodd; clip-rule: evenodd; fill: rgb(213, 216, 222);"/>
						<path d="M 280.799988 101.900002 H 301.699987 V 102.300002 H 280.799988 V 101.900002 Z" class="st27" style="fill-rule: evenodd; clip-rule: evenodd; fill: rgb(213, 216, 222);"/>
						<path d="M 302.899994 101.900002 H 312.299994 V 102.300002 H 302.899994 V 101.900002 Z" class="st27" style="fill-rule: evenodd; clip-rule: evenodd; fill: rgb(213, 216, 222);"/>
						<path d="M 280.799988 91 H 312.299988 V 91.4 H 280.799988 V 91 Z" class="st27" style="fill-rule: evenodd; clip-rule: evenodd; fill: rgb(213, 216, 222);"/>
						<path d="M 295.799988 92.599998 H 312.299988 V 92.999998 H 295.799988 V 92.599998 Z" class="st27" style="fill-rule: evenodd; clip-rule: evenodd; fill: rgb(213, 216, 222);"/>
						<path d="M 280.799988 92.599998 H 294.399988 V 92.999998 H 280.799988 V 92.599998 Z" class="st27" style="fill-rule: evenodd; clip-rule: evenodd; fill: rgb(213, 216, 222);"/>
						<path d="M 304.600006 94.099998 H 312.300006 V 94.499998 H 304.600006 V 94.099998 Z" class="st27" style="fill-rule: evenodd; clip-rule: evenodd; fill: rgb(213, 216, 222);"/>
						<path d="M 280.799988 94.099998 H 303.199987 V 94.499998 H 280.799988 V 94.099998 Z" class="st27" style="fill-rule: evenodd; clip-rule: evenodd; fill: rgb(213, 216, 222);"/>
						<path d="M 280.799988 83.300003 H 312.299988 V 83.700003 H 280.799988 V 83.300003 Z" class="st27" style="fill-rule: evenodd; clip-rule: evenodd; fill: rgb(213, 216, 222);"/>
						<path d="M 280.799988 84.800003 H 297.299988 V 85.200003 H 280.799988 V 84.800003 Z" class="st27" style="fill-rule: evenodd; clip-rule: evenodd; fill: rgb(213, 216, 222);"/>
						<path d="M 298.700012 84.800003 H 312.300013 V 85.200003 H 298.700012 V 84.800003 Z" class="st27" style="fill-rule: evenodd; clip-rule: evenodd; fill: rgb(213, 216, 222);"/>
						<path d="M 280.799988 86.400002 H 288.499988 V 86.800002 H 280.799988 V 86.400002 Z" class="st27" style="fill-rule: evenodd; clip-rule: evenodd; fill: rgb(213, 216, 222);"/>
						<path d="M 289.899994 86.400002 H 312.299994 V 86.800002 H 289.899994 V 86.400002 Z" class="st27" style="fill-rule: evenodd; clip-rule: evenodd; fill: rgb(213, 216, 222);"/>
						<path d="M 280.799988 87.900002 H 312.299988 V 88.300002 H 280.799988 V 87.900002 Z" class="st27" style="fill-rule: evenodd; clip-rule: evenodd; fill: rgb(213, 216, 222);"/>
						<path d="M 280.799988 89.5 H 301.699987 V 89.9 H 280.799988 V 89.5 Z" class="st27" style="fill-rule: evenodd; clip-rule: evenodd; fill: rgb(213, 216, 222);"/>
						<path d="M 302.899994 89.5 H 312.299994 V 89.9 H 302.899994 V 89.5 Z" class="st27" style="fill-rule: evenodd; clip-rule: evenodd; fill: rgb(213, 216, 222);"/>
					</g>
					<g>
						<path d="M 238.199997 128.199997 H 269.699997 V 128.599997 H 238.199997 V 128.199997 Z" class="st27" style="fill-rule: evenodd; clip-rule: evenodd; fill: rgb(213, 216, 222);"/>
						<path d="M 238.199997 129.800003 H 254.699997 V 130.200003 H 238.199997 V 129.800003 Z" class="st27" style="fill-rule: evenodd; clip-rule: evenodd; fill: rgb(213, 216, 222);"/>
						<path d="M 256.100006 129.800003 H 269.700006 V 130.200003 H 256.100006 V 129.800003 Z" class="st27" style="fill-rule: evenodd; clip-rule: evenodd; fill: rgb(213, 216, 222);"/>
						<path d="M 238.199997 131.300003 H 245.899997 V 131.700003 H 238.199997 V 131.300003 Z" class="st27" style="fill-rule: evenodd; clip-rule: evenodd; fill: rgb(213, 216, 222);"/>
						<path d="M 247.199997 131.300003 H 269.599997 V 131.700003 H 247.199997 V 131.300003 Z" class="st27" style="fill-rule: evenodd; clip-rule: evenodd; fill: rgb(213, 216, 222);"/>
						<path d="M 238.199997 120.5 H 269.699997 V 120.9 H 238.199997 V 120.5 Z" class="st27" style="fill-rule: evenodd; clip-rule: evenodd; fill: rgb(213, 216, 222);"/>
						<path d="M 253.199997 122 H 269.699997 V 122.4 H 253.199997 V 122 Z" class="st27" style="fill-rule: evenodd; clip-rule: evenodd; fill: rgb(213, 216, 222);"/>
						<path d="M 238.199997 122 H 251.799997 V 122.4 H 238.199997 V 122 Z" class="st27" style="fill-rule: evenodd; clip-rule: evenodd; fill: rgb(213, 216, 222);"/>
						<path d="M 262 123.599998 H 269.7 V 123.999998 H 262 V 123.599998 Z" class="st27" style="fill-rule: evenodd; clip-rule: evenodd; fill: rgb(213, 216, 222);"/>
						<path d="M 238.199997 123.599998 H 260.599997 V 123.999998 H 238.199997 V 123.599998 Z" class="st27" style="fill-rule: evenodd; clip-rule: evenodd; fill: rgb(213, 216, 222);"/>
						<path d="M 238.199997 125.099998 H 269.699997 V 125.499998 H 238.199997 V 125.099998 Z" class="st27" style="fill-rule: evenodd; clip-rule: evenodd; fill: rgb(213, 216, 222);"/>
						<path d="M 248.800003 126.699997 H 269.700003 V 127.099997 H 248.800003 V 126.699997 Z" class="st27" style="fill-rule: evenodd; clip-rule: evenodd; fill: rgb(213, 216, 222);"/>
						<path d="M 238.199997 126.699997 H 247.599997 V 127.099997 H 238.199997 V 126.699997 Z" class="st27" style="fill-rule: evenodd; clip-rule: evenodd; fill: rgb(213, 216, 222);"/>
						<path d="M 238.199997 115.800003 H 269.699997 V 116.200003 H 238.199997 V 115.800003 Z" class="st27" style="fill-rule: evenodd; clip-rule: evenodd; fill: rgb(213, 216, 222);"/>
						<path d="M 238.199997 117.400002 H 254.699997 V 117.800002 H 238.199997 V 117.400002 Z" class="st27" style="fill-rule: evenodd; clip-rule: evenodd; fill: rgb(213, 216, 222);"/>
						<path d="M 256.100006 117.400002 H 269.700006 V 117.800002 H 256.100006 V 117.400002 Z" class="st27" style="fill-rule: evenodd; clip-rule: evenodd; fill: rgb(213, 216, 222);"/>
						<path d="M 238.199997 118.900002 H 245.899997 V 119.300002 H 238.199997 V 118.900002 Z" class="st27" style="fill-rule: evenodd; clip-rule: evenodd; fill: rgb(213, 216, 222);"/>
						<path d="M 247.199997 118.900002 H 269.599997 V 119.300002 H 247.199997 V 118.900002 Z" class="st27" style="fill-rule: evenodd; clip-rule: evenodd; fill: rgb(213, 216, 222);"/>
						<path d="M 238.199997 108.099998 H 269.699997 V 108.499998 H 238.199997 V 108.099998 Z" class="st27" style="fill-rule: evenodd; clip-rule: evenodd; fill: rgb(213, 216, 222);"/>
						<path d="M 253.199997 109.599998 H 269.699997 V 109.999998 H 253.199997 V 109.599998 Z" class="st27" style="fill-rule: evenodd; clip-rule: evenodd; fill: rgb(213, 216, 222);"/>
						<path d="M 238.199997 109.599998 H 251.799997 V 109.999998 H 238.199997 V 109.599998 Z" class="st27" style="fill-rule: evenodd; clip-rule: evenodd; fill: rgb(213, 216, 222);"/>
						<path d="M 262 111.199997 H 269.7 V 111.599997 H 262 V 111.199997 Z" class="st27" style="fill-rule: evenodd; clip-rule: evenodd; fill: rgb(213, 216, 222);"/>
						<path d="M 238.199997 111.199997 H 260.599997 V 111.599997 H 238.199997 V 111.199997 Z" class="st27" style="fill-rule: evenodd; clip-rule: evenodd; fill: rgb(213, 216, 222);"/>
						<path d="M 238.199997 112.699997 H 269.699997 V 113.099997 H 238.199997 V 112.699997 Z" class="st27" style="fill-rule: evenodd; clip-rule: evenodd; fill: rgb(213, 216, 222);"/>
						<path d="M 248.800003 114.300003 H 269.700003 V 114.700003 H 248.800003 V 114.300003 Z" class="st27" style="fill-rule: evenodd; clip-rule: evenodd; fill: rgb(213, 216, 222);"/>
						<path d="M 238.199997 114.300003 H 247.599997 V 114.700003 H 238.199997 V 114.300003 Z" class="st27" style="fill-rule: evenodd; clip-rule: evenodd; fill: rgb(213, 216, 222);"/>
						<path d="M 238.199997 103.400002 H 269.699997 V 103.800002 H 238.199997 V 103.400002 Z" class="st27" style="fill-rule: evenodd; clip-rule: evenodd; fill: rgb(213, 216, 222);"/>
						<path d="M 238.199997 105 H 254.699997 V 105.4 H 238.199997 V 105 Z" class="st27" style="fill-rule: evenodd; clip-rule: evenodd; fill: rgb(213, 216, 222);"/>
						<path d="M 256.100006 105 H 269.700006 V 105.4 H 256.100006 V 105 Z" class="st27" style="fill-rule: evenodd; clip-rule: evenodd; fill: rgb(213, 216, 222);"/>
						<path d="M 238.199997 106.5 H 245.899997 V 106.9 H 238.199997 V 106.5 Z" class="st27" style="fill-rule: evenodd; clip-rule: evenodd; fill: rgb(213, 216, 222);"/>
						<path d="M 247.199997 106.5 H 269.599997 V 106.9 H 247.199997 V 106.5 Z" class="st27" style="fill-rule: evenodd; clip-rule: evenodd; fill: rgb(213, 216, 222);"/>
						<path d="M 238.199997 95.699997 H 269.699997 V 96.099997 H 238.199997 V 95.699997 Z" class="st27" style="fill-rule: evenodd; clip-rule: evenodd; fill: rgb(213, 216, 222);"/>
						<path d="M 253.199997 97.199997 H 269.699997 V 97.599997 H 253.199997 V 97.199997 Z" class="st27" style="fill-rule: evenodd; clip-rule: evenodd; fill: rgb(213, 216, 222);"/>
						<path d="M 238.199997 97.199997 H 251.799997 V 97.599997 H 238.199997 V 97.199997 Z" class="st27" style="fill-rule: evenodd; clip-rule: evenodd; fill: rgb(213, 216, 222);"/>
						<path d="M 262 98.800003 H 269.7 V 99.200003 H 262 V 98.800003 Z" class="st27" style="fill-rule: evenodd; clip-rule: evenodd; fill: rgb(213, 216, 222);"/>
						<path d="M 238.199997 98.800003 H 260.599997 V 99.200003 H 238.199997 V 98.800003 Z" class="st27" style="fill-rule: evenodd; clip-rule: evenodd; fill: rgb(213, 216, 222);"/>
						<path d="M 238.199997 100.300003 H 269.699997 V 100.700003 H 238.199997 V 100.300003 Z" class="st27" style="fill-rule: evenodd; clip-rule: evenodd; fill: rgb(213, 216, 222);"/>
						<path d="M 248.800003 101.900002 H 269.700003 V 102.300002 H 248.800003 V 101.900002 Z" class="st27" style="fill-rule: evenodd; clip-rule: evenodd; fill: rgb(213, 216, 222);"/>
						<path d="M 238.199997 101.900002 H 247.599997 V 102.300002 H 238.199997 V 101.900002 Z" class="st27" style="fill-rule: evenodd; clip-rule: evenodd; fill: rgb(213, 216, 222);"/>
						<path d="M 238.199997 91 H 269.699997 V 91.4 H 238.199997 V 91 Z" class="st27" style="fill-rule: evenodd; clip-rule: evenodd; fill: rgb(213, 216, 222);"/>
						<path d="M 238.199997 92.599998 H 254.699997 V 92.999998 H 238.199997 V 92.599998 Z" class="st27" style="fill-rule: evenodd; clip-rule: evenodd; fill: rgb(213, 216, 222);"/>
						<path d="M 256.100006 92.599998 H 269.700006 V 92.999998 H 256.100006 V 92.599998 Z" class="st27" style="fill-rule: evenodd; clip-rule: evenodd; fill: rgb(213, 216, 222);"/>
						<path d="M 238.199997 94.099998 H 245.899997 V 94.499998 H 238.199997 V 94.099998 Z" class="st27" style="fill-rule: evenodd; clip-rule: evenodd; fill: rgb(213, 216, 222);"/>
						<path d="M 247.199997 94.099998 H 269.599997 V 94.499998 H 247.199997 V 94.099998 Z" class="st27" style="fill-rule: evenodd; clip-rule: evenodd; fill: rgb(213, 216, 222);"/>
						<path d="M 238.199997 83.300003 H 269.699997 V 83.700003 H 238.199997 V 83.300003 Z" class="st27" style="fill-rule: evenodd; clip-rule: evenodd; fill: rgb(213, 216, 222);"/>
						<path d="M 253.199997 84.800003 H 269.699997 V 85.200003 H 253.199997 V 84.800003 Z" class="st27" style="fill-rule: evenodd; clip-rule: evenodd; fill: rgb(213, 216, 222);"/>
						<path d="M 238.199997 84.800003 H 251.799997 V 85.200003 H 238.199997 V 84.800003 Z" class="st27" style="fill-rule: evenodd; clip-rule: evenodd; fill: rgb(213, 216, 222);"/>
						<path d="M 262 86.400002 H 269.7 V 86.800002 H 262 V 86.400002 Z" class="st27" style="fill-rule: evenodd; clip-rule: evenodd; fill: rgb(213, 216, 222);"/>
						<path d="M 238.199997 86.400002 H 260.599997 V 86.800002 H 238.199997 V 86.400002 Z" class="st27" style="fill-rule: evenodd; clip-rule: evenodd; fill: rgb(213, 216, 222);"/>
						<path d="M 238.199997 87.900002 H 269.699997 V 88.300002 H 238.199997 V 87.900002 Z" class="st27" style="fill-rule: evenodd; clip-rule: evenodd; fill: rgb(213, 216, 222);"/>
						<path d="M 248.800003 89.5 H 269.700003 V 89.9 H 248.800003 V 89.5 Z" class="st27" style="fill-rule: evenodd; clip-rule: evenodd; fill: rgb(213, 216, 222);"/>
						<path d="M 238.199997 89.5 H 247.599997 V 89.9 H 238.199997 V 89.5 Z" class="st27" style="fill-rule: evenodd; clip-rule: evenodd; fill: rgb(213, 216, 222);"/>
					</g>
					<path d="M 274.6000061035156 140.5 L 255.5 121.69999694824219 L 255.5 65 L 274.6000061035156 83.0999984741211 Z" class="st0" style="fill: rgb(255, 255, 255);"/>
				</g>
				<g id="ribbon_1_">
					<path d="M 288.6000061035156 130.60000610351562 L 286 127.80000305175781 L 283.3999938964844 130.60000610351562 L 283.3999938964844 78 L 288.6000061035156 78 Z" class="st25" style="fill: rgb(224, 227, 232);"/>
					<path d="M 289.8999938964844 130.60000610351562 L 287.20001220703125 127.80000305175781 L 284.6000061035156 130.60000610351562 L 284.6000061035156 78 L 289.8999938964844 78 Z" class="st7" style="fill: rgb(93, 156, 236);"/>
				</g>
			</g>
		</g>
		<g id="best-seller-book">
			<path d="M 30 32.5 H 180 V 182.5 H 30 V 32.5 Z" id="label_20_" class="st9" style="fill: rgb(67, 74, 84);"/>
			<g id="icon_22_">
				<g id="book_8_">
					<g>
						<path class="st1" d="M79.9,65.6c-0.6-0.4-1.3-0.6-2.1-0.6h-3.1c-2,0-3.6,1.5-3.6,3.3v60.5h67.7V65.6H79.9z" style="fill: rgb(252, 110, 81);"/>
						<path class="st28" d="M77.8,124.8c0.8,0,1.5,0.2,2.1,0.6V65.6c-0.6-0.4-1.3-0.6-2.1-0.6H77v59.8H77.8z" style="fill: rgb(233, 87, 63);"/>
						<path class="st29" d="M77.8,126.1h-3.1c-1.2,0-2.3,0.9-2.3,2v14.5c0,1.1,1,2,2.3,2h3.1c0.7,0,1.2-0.3,1.7-0.6h59.4v-17.1H79.4&#10;&#9;&#9;&#9;&#9;&#9;&#9;&#9;C79,126.4,78.4,126.1,77.8,126.1z" style="fill: rgb(170, 178, 188);"/>
						<path class="st28" d="M138.9,143.9H79.4c-0.4,0.4-1,0.6-1.7,0.6h-3.1c-1.2,0-2.3-0.9-2.3-2v-14.5c0-1.1,1-2,2.3-2h3.1&#10;&#9;&#9;&#9;&#9;&#9;&#9;&#9;c0.7,0,1.2,0.3,1.7,0.6h59.4v-1.3h-59c-0.6-0.4-1.3-0.6-2.1-0.6h-3.1c-2,0-3.6,1.5-3.6,3.3v14.5c0,1.8,1.6,3.3,3.6,3.3h3.1&#10;&#9;&#9;&#9;&#9;&#9;&#9;&#9;c0.8,0,1.5-0.2,2.1-0.6h59V143.9z" style="fill: rgb(233, 87, 63);"/>
					</g>
					<g>
						<path class="st30" d="M74.8,127.8c0,0.4,0.4,0.7,1,0.7h63.1v-0.7H74.8z" style="fill: rgb(213, 216, 222);"/>
						<path class="st30" d="M74.8,129.1c0,0.4,0.4,0.7,1,0.7h63.1v-0.7H74.8z" style="fill: rgb(213, 216, 222);"/>
						<path class="st30" d="M74.8,130.5c0,0.4,0.4,0.7,1,0.7h63.1v-0.7H74.8z" style="fill: rgb(213, 216, 222);"/>
						<path class="st30" d="M74.8,131.8c0,0.4,0.4,0.7,1,0.7h63.1v-0.7H74.8z" style="fill: rgb(213, 216, 222);"/>
						<path class="st30" d="M74.8,133.2c0,0.4,0.4,0.7,1,0.7h63.1v-0.7H74.8z" style="fill: rgb(213, 216, 222);"/>
						<path class="st30" d="M74.8,134.6c0,0.4,0.4,0.7,1,0.7h63.1v-0.7H74.8z" style="fill: rgb(213, 216, 222);"/>
						<path class="st30" d="M74.8,135.9c0,0.4,0.4,0.7,1,0.7h63.1v-0.7H74.8z" style="fill: rgb(213, 216, 222);"/>
						<path class="st30" d="M74.8,137.3c0,0.4,0.4,0.7,1,0.7h63.1v-0.7H74.8z" style="fill: rgb(213, 216, 222);"/>
						<path class="st30" d="M74.8,138.6c0,0.4,0.4,0.7,1,0.7h63.1v-0.7H74.8z" style="fill: rgb(213, 216, 222);"/>
						<path class="st30" d="M74.8,140c0,0.4,0.4,0.7,1,0.7h63.1V140H74.8z" style="fill: rgb(213, 216, 222);"/>
						<path class="st30" d="M74.8,141.4c0,0.4,0.4,0.7,1,0.7h63.1v-0.7H74.8z" style="fill: rgb(213, 216, 222);"/>
						<path class="st30" d="M74.8,142.7c0,0.4,0.4,0.7,1,0.7h63.1v-0.7H74.8z" style="fill: rgb(213, 216, 222);"/>
					</g>
					<g>
						<path class="st0" d="M75.8,127.1c-0.5,0-1,0.3-1,0.7h64.1v-0.7H75.8z" style="fill: rgb(255, 255, 255);"/>
						<path class="st0" d="M74.8,129.1h64.1v-0.7H75.8C75.2,128.4,74.8,128.7,74.8,129.1z" style="fill: rgb(255, 255, 255);"/>
						<path class="st0" d="M74.8,130.5h64.1v-0.7H75.8C75.2,129.8,74.8,130.1,74.8,130.5z" style="fill: rgb(255, 255, 255);"/>
						<path class="st0" d="M74.8,131.8h64.1v-0.7H75.8C75.2,131.2,74.8,131.5,74.8,131.8z" style="fill: rgb(255, 255, 255);"/>
						<path class="st0" d="M74.8,133.2h64.1v-0.7H75.8C75.2,132.5,74.8,132.8,74.8,133.2z" style="fill: rgb(255, 255, 255);"/>
						<path class="st0" d="M74.8,134.6h64.1v-0.7H75.8C75.2,133.9,74.8,134.2,74.8,134.6z" style="fill: rgb(255, 255, 255);"/>
						<path class="st0" d="M74.8,135.9h64.1v-0.7H75.8C75.2,135.2,74.8,135.5,74.8,135.9z" style="fill: rgb(255, 255, 255);"/>
						<path class="st0" d="M74.8,137.3h64.1v-0.7H75.8C75.2,136.6,74.8,136.9,74.8,137.3z" style="fill: rgb(255, 255, 255);"/>
						<path class="st0" d="M74.8,138.6h64.1V138H75.8C75.2,138,74.8,138.3,74.8,138.6z" style="fill: rgb(255, 255, 255);"/>
						<path class="st0" d="M74.8,140h64.1v-0.7H75.8C75.2,139.3,74.8,139.6,74.8,140z" style="fill: rgb(255, 255, 255);"/>
						<path class="st0" d="M74.8,141.4h64.1v-0.7H75.8C75.2,140.7,74.8,141,74.8,141.4z" style="fill: rgb(255, 255, 255);"/>
						<path class="st0" d="M74.8,142.7h64.1V142H75.8C75.2,142,74.8,142.3,74.8,142.7z" style="fill: rgb(255, 255, 255);"/>
					</g>
					<path class="st6" d="M72.9,128c0-0.5,0.4-1,0.8-1c0.5,0,0.8,0.4,0.8,1v14.5c0,0.5-0.4,1-0.8,1c-0.5,0-0.8-0.4-0.8-1" style="fill: rgb(204, 209, 217);"/>
				</g>
				<path d="M 83.80000305175781 136.3000030517578 L 94.9000015258789 136.3000030517578 L 94.9000015258789 150 L 89.30000305175781 146.10000610351562 L 83.80000305175781 150 Z" id="ribbon_2_" class="st7" style="fill: rgb(93, 156, 236);"/>
				<g id="badge">
					<linearGradient id="SVGID_1_" gradientUnits="userSpaceOnUse" x1="116.9614" y1="103.604" x2="130.3648" y2="117.0073">
						<stop offset="0.4969" style="stop-color:#FFCE54"/>
						<stop offset="0.5" style="stop-color:#F6BB42"/>
					</linearGradient>
					<path d="M 130.60000610351562 111.5 L 133.1999969482422 110.30000305175781 L 130.60000610351562 109.0999984741211 L 132.60000610351562 107.0999984741211 L 129.8000030517578 106.80000305175781 L 131 104.19999694824219 L 128.1999969482422 104.9000015258789 L 128.39999389648438 102.0999984741211 L 126.0999984741211 103.69999694824219 L 125.30000305175781 100.9000015258789 L 123.69999694824219 103.30000305175781 L 122 100.9000015258789 L 121.30000305175781 103.69999694824219 L 118.9000015258789 102.0999984741211 L 119.0999984741211 104.9000015258789 L 116.4000015258789 104.19999694824219 L 117.5999984741211 106.80000305175781 L 114.69999694824219 107.0999984741211 L 116.69999694824219 109.0999984741211 L 114.0999984741211 110.30000305175781 L 116.69999694824219 111.5 L 114.69999694824219 113.5999984741211 L 117.5999984741211 113.80000305175781 L 116.4000015258789 116.4000015258789 L 119.0999984741211 115.69999694824219 L 118.9000015258789 118.5 L 121.30000305175781 116.9000015258789 L 122 119.69999694824219 L 123.69999694824219 117.30000305175781 L 125.30000305175781 119.69999694824219 L 126.0999984741211 116.9000015258789 L 128.39999389648438 118.5 L 128.1999969482422 115.69999694824219 L 131 116.4000015258789 L 129.8000030517578 113.80000305175781 L 132.60000610351562 113.5999984741211 Z" class="st31" style="fill: url('#SVGID_1_');"/>
				</g>
			</g>
		</g>
	</g>

</svg>